<svg aria-hidden="true" style="position:absolute;width:0;height:0;overflow:hidden" xmlns="http://www.w3.org/2000/svg">
  <defs>
    <symbol id="icon-facebook" viewBox="0 0 32 32">
      <path d="M23.999.007 19.849 0c-4.662 0-7.675 3.091-7.675 7.875v3.631H8.002a.652.652 0 0 0-.652.653v5.261c0 .361.292.652.652.652h4.172v13.275c0 .361.292.653.652.653h5.444a.651.651 0 0 0 .652-.652V18.073H23.8a.651.651 0 0 0 .652-.652l.002-5.261a.652.652 0 0 0-.653-.652h-4.88V8.43c0-1.479.353-2.23 2.28-2.23l2.795-.001c.36 0 .652-.292.652-.652V.662a.652.652 0 0 0-.651-.652z"/>
    </symbol>
    <symbol id="icon-instagram" viewBox="0 0 32 32">
      <path stroke-linejoin="round" stroke-linecap="round" stroke-width="2.667" d="M22.667 2.667H9.334a6.667 6.667 0 0 0-6.667 6.667v13.333a6.667 6.667 0 0 0 6.667 6.667h13.333a6.667 6.667 0 0 0 6.667-6.667V9.334a6.667 6.667 0 0 0-6.667-6.667z"/>
      <path stroke-linejoin="round" stroke-linecap="round" stroke-width="2.667" d="M21.333 15.16a5.329 5.329 0 0 1-2.878 5.546 5.337 5.337 0 0 1-6.169-.992 5.33 5.33 0 0 1 1.316-8.505 5.336 5.336 0 0 1 6.228.962 5.328 5.328 0 0 1 1.504 2.989zM23.333 8.667h.013"/>
    </symbol>
    <symbol id="icon-telegram" viewBox="0 0 32 32">
      <path d="m.565 15.428 7.373 2.752 2.854 9.178a.868.868 0 0 0 1.379.415l4.11-3.351a1.226 1.226 0 0 1 1.495-.042l7.413 5.382a.869.869 0 0 0 1.361-.525l5.43-26.122a.87.87 0 0 0-1.164-.988L.555 13.801c-.747.288-.74 1.345.009 1.626zm9.768 1.287L24.744 7.84c.259-.159.525.191.303.397L13.154 19.292c-.418.389-.688.91-.764 1.475l-.405 3.002c-.054.401-.617.441-.727.053L9.7 18.347a1.452 1.452 0 0 1 .634-1.632z"/>
    </symbol>
    <symbol id="icon-twitter" viewBox="0 0 32 32">
      <path d="M24.325 3h4.411L19.1 14.013 30.436 29H21.56l-6.952-9.089L6.653 29H2.24l10.307-11.78L1.672 3h9.101l6.284 8.308zm-1.548 23.36h2.444L9.445 5.501H6.822z"/>
    </symbol>
  </defs>
</svg>
